<svg width="24" height="24" viewBox="0 0 24 24" fill="none" xmlns="http://www.w3.org/2000/svg">
<path d="M18 14C16.3431 14 15 12.6569 15 11C15 9.34315 16.3431 8 18 8C19.6569 8 21 9.34315 21 11C21 12.6569 19.6569 14 18 14ZM9 11C6.79086 11 5 9.20914 5 7C5 4.79086 6.79086 3 9 3C11.2091 3 13 4.79086 13 7C13 9.20914 11.2091 11 9 11Z" fill="#5C78FF"/>
<path d="M17.6012 15.0006C21.0077 15.0379 23.7892 16.7601 23.9985 20.4C24.0069 20.5466 23.9985 21 23.4559 21H19.6C19.6 18.7491 18.8563 16.6718 17.6012 15.0006ZM0.000651684 20.1992C0.388259 15.4265 4.26191 13 8.98334 13C13.7712 13 17.7049 15.2932 17.9979 20.2C18.0096 20.3955 17.9979 21 17.2467 21C13.5411 21 8.03472 21 0.727502 21C0.476712 21 -0.0204618 20.4592 0.000651684 20.1992Z" fill="#48465B"/>
</svg>
