<svg width="24" height="24" viewBox="0 0 24 24" fill="none" xmlns="http://www.w3.org/2000/svg">
<path d="M21.7482 7.09859L12.8989 16.3142C12.6236 16.6009 12.2458 16.7666 11.8484 16.7749L8.12511 16.853L8.20355 13.1145C8.2117 12.7262 8.37016 12.3562 8.6456 12.0823L17.6961 3.08347C18.2824 2.50054 19.2298 2.5019 19.8144 3.0865L21.7269 4.99898C22.3043 5.57639 22.3138 6.5096 21.7482 7.09859Z" fill="#48465B"/>
<path d="M13.08 0C13.7427 0 14.28 0.537258 14.28 1.2C14.28 1.86274 13.7427 2.4 13.08 2.4H4.8C3.47452 2.4 2.4 3.47452 2.4 4.8V19.2C2.4 20.5255 3.47452 21.6 4.8 21.6H19.2C20.5255 21.6 21.6 20.5255 21.6 19.2V13.2C21.6 12.5373 22.1373 12 22.8 12C23.4627 12 24 12.5373 24 13.2V19.2C24 21.851 21.851 24 19.2 24H4.8C2.14903 24 0 21.851 0 19.2V4.8C0 2.14903 2.14903 0 4.8 0H13.08Z" fill="#5C78FF"/>
</svg>
