<svg width="24" height="24" viewBox="0 0 24 24" fill="none" xmlns="http://www.w3.org/2000/svg">
<path fill-rule="evenodd" clip-rule="evenodd" d="M2.25 0H8.25C9.49264 0 10.5 1.00736 10.5 2.25V3.75C10.5 4.99264 9.49264 6 8.25 6H2.25C1.00736 6 0 4.99264 0 3.75V2.25C0 1.00736 1.00736 0 2.25 0ZM15.75 18H21.75C22.9926 18 24 19.0074 24 20.25V21.75C24 22.9926 22.9926 24 21.75 24H15.75C14.5074 24 13.5 22.9926 13.5 21.75V20.25C13.5 19.0074 14.5074 18 15.75 18Z" fill="#3E49A0"/>
<path fill-rule="evenodd" clip-rule="evenodd" d="M2.25 9H8.25C9.49264 9 10.5 10.0074 10.5 11.25V21.75C10.5 22.9926 9.49264 24 8.25 24H2.25C1.00736 24 0 22.9926 0 21.75V11.25C0 10.0074 1.00736 9 2.25 9ZM15.75 0H21.75C22.9926 0 24 1.00736 24 2.25V12.75C24 13.9926 22.9926 15 21.75 15H15.75C14.5074 15 13.5 13.9926 13.5 12.75V2.25C13.5 1.00736 14.5074 0 15.75 0Z" fill="#5C78FF"/>
</svg>
