<svg width="24" height="24" viewBox="0 0 24 24" fill="none" xmlns="http://www.w3.org/2000/svg">
<path d="M9.97101 11.9984L6.92752 15.0419C6.36711 15.6023 6.36711 16.5107 6.92752 17.0711C7.48778 17.6313 8.39625 17.6313 8.95651 17.0711L12 14.0274L13.0145 15.0419C14.1352 16.1626 14.1352 17.9794 13.0145 19.1001L8.95651 23.1581C7.83584 24.2786 6.01905 24.2786 4.89852 23.1581L0.840392 19.1001C-0.280131 17.9794 -0.280131 16.1626 0.840392 15.0419L4.89852 10.9839C6.01905 9.86342 7.83584 9.86342 8.95651 10.9839L9.97101 11.9984Z" fill="#5C78FF"/>
<path d="M14.029 12L17.0725 8.95651C17.6328 8.3961 17.6328 7.48778 17.0725 6.92737C16.5122 6.36711 15.6038 6.36711 15.0435 6.92737L12 9.97101L10.9855 8.95651C9.86485 7.83584 9.86485 6.01905 10.9855 4.89838L15.0435 0.840392C16.1642 -0.280131 17.981 -0.280131 19.1015 0.840392L23.1596 4.89838C24.2801 6.01905 24.2801 7.83584 23.1596 8.95651L19.1015 13.0145C17.981 14.135 16.1642 14.135 15.0435 13.0145L14.029 12Z" fill="#48465B"/>
</svg>
