<svg width="24" height="24" viewBox="0 0 24 24" fill="none" xmlns="http://www.w3.org/2000/svg">
<path fill-rule="evenodd" clip-rule="evenodd" d="M20.4531 8.75C21.4498 8.76668 22.3666 9.29873 22.8756 10.1558C23.1777 10.6271 23.3152 11.1851 23.2669 11.7427V11.7493L22.176 20.4765C21.9435 22.0985 20.5513 23.3012 18.9127 23.2955H6.54545V10.4227L9.45454 7.02637V2.29473C9.44859 1.85992 9.63964 1.44575 9.97427 1.16805C10.3089 0.890346 10.7512 0.778913 11.1774 0.864913C13.149 1.32968 14.5429 3.08808 14.5454 5.11364V8.75H20.4531ZM1 9.47727C0.447715 9.47727 0 9.92499 0 10.4773V22.2955C0 22.8477 0.447715 23.2955 1 23.2955H4.09091C4.64319 23.2955 5.09091 22.8477 5.09091 22.2955V10.4773C5.09091 9.92499 4.64319 9.47727 4.09091 9.47727H1Z" fill="#5C78FF"/>
<mask id="mask0" mask-type="alpha" maskUnits="userSpaceOnUse" x="0" y="0" width="24" height="24">
<path fill-rule="evenodd" clip-rule="evenodd" d="M20.4531 8.75C21.4498 8.76668 22.3666 9.29873 22.8756 10.1558C23.1777 10.6271 23.3152 11.1851 23.2669 11.7427V11.7493L22.176 20.4765C21.9435 22.0985 20.5513 23.3012 18.9127 23.2955H6.54545V10.4227L9.45454 7.02637V2.29473C9.44859 1.85992 9.63964 1.44575 9.97427 1.16805C10.3089 0.890346 10.7512 0.778913 11.1774 0.864913C13.149 1.32968 14.5429 3.08808 14.5454 5.11364V8.75H20.4531ZM1 9.47727C0.447715 9.47727 0 9.92499 0 10.4773V22.2955C0 22.8477 0.447715 23.2955 1 23.2955H4.09091C4.64319 23.2955 5.09091 22.8477 5.09091 22.2955V10.4773C5.09091 9.92499 4.64319 9.47727 4.09091 9.47727H1Z" fill="white"/>
</mask>
<g mask="url(#mask0)">
<rect x="-39.75" y="-38.25" width="97.5" height="97.5" fill="#5C78FF"/>
</g>
</svg>
