<svg width="24" height="24" viewBox="0 0 24 24" fill="none" xmlns="http://www.w3.org/2000/svg">
<path d="M12 21.0564C17.4169 21.0564 21.6301 16.3918 23.4357 13.6834C24.1881 12.6301 24.1881 11.2759 23.4357 10.2226C21.6301 7.66458 17.4169 3 12 3C6.58307 3 2.36991 7.66458 0.564263 10.373C-0.188088 11.4263 -0.188088 12.7806 0.564263 13.6834C2.36991 16.3918 6.58307 21.0564 12 21.0564ZM12 7.51411C14.558 7.51411 16.5141 9.47022 16.5141 12.0282C16.5141 14.5862 14.558 16.5423 12 16.5423C9.44201 16.5423 7.48589 14.5862 7.48589 12.0282C7.48589 9.47022 9.44201 7.51411 12 7.51411Z" fill="#5C78FF"/>
</svg>
