<svg width="24" height="24" viewBox="0 0 24 24" fill="none" xmlns="http://www.w3.org/2000/svg">
<path fill-rule="evenodd" clip-rule="evenodd" d="M12 0C12.6624 0 13.2 0.53724 13.2 1.2V3.6C13.2 4.26276 12.6624 4.8 12 4.8C11.3376 4.8 10.8 4.26276 10.8 3.6V1.2C10.8 0.53724 11.3376 0 12 0ZM3.6 10.8H1.2C0.5376 10.8 0 11.3372 0 12C0 12.6628 0.5376 13.2 1.2 13.2H3.6C4.2624 13.2 4.8 12.6628 4.8 12C4.8 11.3372 4.2624 10.8 3.6 10.8ZM22.8 10.8H20.4C19.7376 10.8 19.2 11.3372 19.2 12C19.2 12.6628 19.7376 13.2 20.4 13.2H22.8C23.4624 13.2 24 12.6628 24 12C24 11.3372 23.4624 10.8 22.8 10.8ZM13.2 20.4C13.2 19.7372 12.6624 19.2 12 19.2C11.3376 19.2 10.8 19.7372 10.8 20.4V22.8C10.8 23.4628 11.3376 24 12 24C12.6624 24 13.2 23.4628 13.2 22.8V20.4Z" fill="#5C78FF"/>
<path d="M12 14.4C13.326 14.4 14.4 13.3255 14.4 12C14.4 10.6745 13.326 9.59998 12 9.59998C10.674 9.59998 9.60001 10.6745 9.60001 12C9.60001 13.3255 10.674 14.4 12 14.4Z" fill="#5C78FF"/>
<path fill-rule="evenodd" clip-rule="evenodd" d="M3.60001 12C3.60001 16.6392 7.36081 20.4 12 20.4C16.6392 20.4 20.4 16.6392 20.4 12C20.4 7.36078 16.6392 3.59998 12 3.59998C7.36081 3.59998 3.60001 7.36078 3.60001 12ZM18 12C18 15.3137 15.3132 18 12 18C8.6868 18 6 15.3137 6 12C6 8.68632 8.6868 6 12 6C15.3132 6 18 8.68632 18 12Z" fill="#3F4047"/>
</svg>
