<svg width="24" height="24" viewBox="0 0 24 24" fill="none" xmlns="http://www.w3.org/2000/svg">
<path fill-rule="evenodd" clip-rule="evenodd" d="M2.66667 7H21.3333C22.8061 7 24 8.04467 24 9.33333V18.6667C24 19.9553 22.8061 21 21.3333 21H2.66667C1.19391 21 0 19.9553 0 18.6667V9.33333C0 8.04467 1.19391 7 2.66667 7ZM12 18.6667C14.9455 18.6667 17.3333 16.5773 17.3333 14C17.3333 11.4227 14.9455 9.33333 12 9.33333C9.05448 9.33333 6.66667 11.4227 6.66667 14C6.66667 16.5773 9.05448 18.6667 12 18.6667Z" fill="#5C78FF"/>
<path d="M14.6667 3H9.33333C8.59695 3 8 3.67157 8 4.5C8 5.32843 8.59695 6 9.33333 6H14.6667C15.403 6 16 5.32843 16 4.5C16 3.67157 15.403 3 14.6667 3Z" fill="#5C78FF"/>
<path d="M12 17C13.6569 17 15 15.6569 15 14C15 12.3431 13.6569 11 12 11C10.3431 11 9 12.3431 9 14C9 15.6569 10.3431 17 12 17Z" fill="#5C78FF"/>
</svg>
