<svg width="24" height="24" viewBox="0 0 24 24" fill="none" xmlns="http://www.w3.org/2000/svg">
<path fill-rule="evenodd" clip-rule="evenodd" d="M2.11765 7.23529C0.948706 7.23529 0 6.28715 0 5.11765C0 3.94814 0.948706 3 2.11765 3C3.28659 3 4.23529 3.94814 4.23529 5.11765C4.23529 6.28715 3.28659 7.23529 2.11765 7.23529ZM2.11765 14.2941C0.948706 14.2941 0 13.346 0 12.1765C0 11.007 0.948706 10.0588 2.11765 10.0588C3.28659 10.0588 4.23529 11.007 4.23529 12.1765C4.23529 13.346 3.28659 14.2941 2.11765 14.2941ZM0 19.2353C0 20.4048 0.948706 21.3529 2.11765 21.3529C3.28659 21.3529 4.23529 20.4048 4.23529 19.2353C4.23529 18.0658 3.28659 17.1176 2.11765 17.1176C0.948706 17.1176 0 18.0658 0 19.2353Z" fill="#5C78FF"/>
<path fill-rule="evenodd" clip-rule="evenodd" d="M9.17647 3H21.8824C23.0513 3 24 3.94814 24 5.11765C24 6.28715 23.0513 7.23529 21.8824 7.23529H9.17647C8.00753 7.23529 7.05882 6.28715 7.05882 5.11765C7.05882 3.94814 8.00753 3 9.17647 3ZM9.17647 10.0588H21.8824C23.0513 10.0588 24 11.007 24 12.1765C24 13.346 23.0513 14.2941 21.8824 14.2941H9.17647C8.00753 14.2941 7.05882 13.346 7.05882 12.1765C7.05882 11.007 8.00753 10.0588 9.17647 10.0588ZM21.8824 17.1176H9.17647C8.00753 17.1176 7.05882 18.0658 7.05882 19.2353C7.05882 20.4048 8.00753 21.3529 9.17647 21.3529H21.8824C23.0513 21.3529 24 20.4048 24 19.2353C24 18.0658 23.0513 17.1176 21.8824 17.1176Z" fill="#48465B"/>
</svg>
