<svg width="26" height="26" viewBox="0 0 26 26" fill="none" xmlns="http://www.w3.org/2000/svg">
<path d="M24.4822 1.51538L17.1767 24.4781L12.4542 13.5447L24.4822 1.51538Z" fill="#5C78FF"/>
<path fill-rule="evenodd" clip-rule="evenodd" d="M1.33511 9.83092L12.0622 13.9532L16.6976 24.6852C16.7806 24.8767 16.9695 24.9999 17.1766 24.9999C17.1855 24.9999 17.1938 24.9999 17.2027 24.9994C17.4203 24.9884 17.6077 24.8439 17.6739 24.6367L24.9795 1.67392C24.9873 1.64992 24.9857 1.62539 24.9899 1.60138C24.9941 1.57738 24.9993 1.55441 24.9998 1.52936C25.0014 1.47822 24.9935 1.42916 24.9805 1.38063C24.9774 1.36967 24.98 1.35819 24.9763 1.34723C24.9758 1.34514 24.9737 1.34357 24.9732 1.34149C24.9518 1.28147 24.9194 1.22615 24.8777 1.17709C24.8641 1.16092 24.8464 1.15048 24.8313 1.13639C24.8062 1.11342 24.7843 1.08785 24.754 1.06959C24.7467 1.06541 24.7384 1.06437 24.7311 1.06071C24.7091 1.04871 24.6862 1.04245 24.6627 1.03358C24.6262 1.02001 24.5902 1.00853 24.5521 1.00331C24.5281 1.00018 24.5046 0.999654 24.4795 1.00018C24.4378 1.0007 24.3976 1.00592 24.3569 1.01635C24.3428 1.02001 24.3287 1.01688 24.3146 1.02157L1.35441 8.84978C1.14568 8.92023 1.00427 9.11385 1.0001 9.33356C0.995921 9.55327 1.12951 9.75211 1.33511 9.83092ZM17.102 22.9902L13.0735 13.6632L23.3342 3.40091L17.102 22.9902ZM22.5264 2.73331L12.3253 12.9356L3.05349 9.37267L22.5264 2.73331Z" fill="#5C78FF"/>
<path d="M1.33511 9.83092L1.38891 9.6909L1.38879 9.69085L1.33511 9.83092ZM12.0622 13.9532L12.1999 13.8938L12.1749 13.8359L12.116 13.8132L12.0622 13.9532ZM16.6976 24.6852L16.5599 24.7447L16.56 24.7448L16.6976 24.6852ZM17.2027 24.9994L17.1952 24.8496L17.1939 24.8496L17.2027 24.9994ZM17.6739 24.6367L17.8168 24.6824L17.8169 24.6821L17.6739 24.6367ZM24.9795 1.67392L24.8368 1.62742L24.8365 1.62845L24.9795 1.67392ZM24.9998 1.52936L24.8499 1.52477L24.8498 1.52624L24.9998 1.52936ZM24.9805 1.38063L25.1254 1.34169L25.1247 1.33942L24.9805 1.38063ZM24.9763 1.34723L24.8304 1.38371L24.834 1.39466L24.9763 1.34723ZM24.9732 1.34149L25.1187 1.30511L25.1169 1.29801L25.1145 1.29112L24.9732 1.34149ZM24.8777 1.17709L24.7628 1.27348L24.7635 1.27431L24.8777 1.17709ZM24.8313 1.13639L24.9335 1.02661L24.9326 1.02582L24.8313 1.13639ZM24.754 1.06959L24.8316 0.941126L24.8285 0.939353L24.754 1.06959ZM24.7311 1.06071L24.659 1.19237L24.664 1.19488L24.7311 1.06071ZM24.6627 1.03358L24.7157 0.893256L24.7149 0.892965L24.6627 1.03358ZM24.5521 1.00331L24.5724 0.854693L24.5715 0.854568L24.5521 1.00331ZM24.4795 1.00018L24.4814 1.15017L24.4827 1.15014L24.4795 1.00018ZM24.3569 1.01635L24.3197 0.871055L24.3193 0.871156L24.3569 1.01635ZM24.3146 1.02157L24.2672 0.879269L24.2662 0.879598L24.3146 1.02157ZM1.35441 8.84978L1.40239 8.9919L1.40282 8.99175L1.35441 8.84978ZM17.102 22.9902L16.9643 23.0497L17.1234 23.4179L17.245 23.0357L17.102 22.9902ZM13.0735 13.6632L12.9675 13.5571L12.8955 13.6291L12.9358 13.7226L13.0735 13.6632ZM23.3342 3.40091L23.4771 3.44639L23.2281 3.29485L23.3342 3.40091ZM22.5264 2.73331L22.6325 2.83937L22.478 2.59134L22.5264 2.73331ZM12.3253 12.9356L12.2714 13.0756L12.3624 13.1105L12.4313 13.0416L12.3253 12.9356ZM3.05349 9.37267L3.00508 9.2307L2.61339 9.36425L2.99969 9.51269L3.05349 9.37267ZM1.2813 9.97093L12.0084 14.0933L12.116 13.8132L1.38891 9.6909L1.2813 9.97093ZM11.9245 14.0127L16.5599 24.7447L16.8353 24.6257L12.1999 13.8938L11.9245 14.0127ZM16.56 24.7448C16.6668 24.9914 16.9098 25.1499 17.1766 25.1499V24.8499C17.0291 24.8499 16.8944 24.7621 16.8352 24.6256L16.56 24.7448ZM17.1766 25.1499C17.1849 25.1499 17.1976 25.1499 17.2115 25.1491L17.1939 24.8496C17.1901 24.8499 17.1861 24.8499 17.1766 24.8499V25.1499ZM17.2103 25.1492C17.4904 25.1351 17.7315 24.9489 17.8168 24.6824L17.5311 24.591C17.4838 24.7388 17.3502 24.8418 17.1952 24.8496L17.2103 25.1492ZM17.8169 24.6821L25.1224 1.7194L24.8365 1.62845L17.531 24.5912L17.8169 24.6821ZM25.1221 1.72042C25.1314 1.69194 25.1341 1.66617 25.1354 1.65131C25.1358 1.64748 25.1361 1.64373 25.1363 1.64087C25.1366 1.63777 25.1368 1.63549 25.137 1.63336C25.1374 1.6291 25.1376 1.62749 25.1377 1.62708L24.8421 1.57568C24.8401 1.58728 24.839 1.59774 24.8382 1.60558C24.8379 1.6095 24.8376 1.61328 24.8373 1.61624C24.8371 1.61944 24.8369 1.62176 24.8367 1.624C24.8358 1.63341 24.8354 1.6319 24.8368 1.62743L25.1221 1.72042ZM25.1377 1.62708C25.1402 1.61268 25.1489 1.57243 25.1498 1.53249L24.8498 1.52624C24.8496 1.5364 24.848 1.54207 24.8421 1.57568L25.1377 1.62708ZM25.1497 1.53395C25.1519 1.4643 25.1411 1.40016 25.1254 1.34169L24.8356 1.41956C24.846 1.45816 24.8509 1.49213 24.8499 1.52477L25.1497 1.53395ZM25.1247 1.33942C25.1273 1.34853 25.1281 1.35565 25.1284 1.35878C25.1286 1.36109 25.1287 1.3631 25.1285 1.35869C25.1284 1.35603 25.1282 1.34785 25.1271 1.33853C25.126 1.32861 25.1237 1.31508 25.1186 1.2998L24.834 1.39466C24.8308 1.38485 24.8295 1.37687 24.829 1.37253C24.8286 1.36878 24.8286 1.36622 24.8287 1.36916C24.8287 1.37036 24.8289 1.37798 24.8297 1.38587C24.8304 1.39458 24.8321 1.40725 24.8363 1.42183L25.1247 1.33942ZM25.1218 1.31085C25.1171 1.29196 25.1098 1.2779 25.1051 1.26989C25.1027 1.26579 25.1005 1.26255 25.0992 1.26058C25.0985 1.25957 25.0979 1.25874 25.0975 1.25819C25.0972 1.25768 25.0969 1.25724 25.0968 1.25718C25.0965 1.25672 25.0973 1.25784 25.0982 1.25921C25.0993 1.26072 25.1011 1.26349 25.1032 1.26712C25.1074 1.27418 25.1143 1.28726 25.1187 1.30511L24.8277 1.37786C24.8324 1.39676 24.8397 1.41081 24.8444 1.41882C24.8468 1.42292 24.849 1.42616 24.8503 1.42813C24.851 1.42914 24.8516 1.42998 24.852 1.43052C24.8523 1.43103 24.8527 1.43148 24.8527 1.43154C24.853 1.432 24.8522 1.43087 24.8513 1.4295C24.8502 1.42799 24.8484 1.42522 24.8463 1.42159C24.8421 1.41453 24.8353 1.40145 24.8308 1.3836L25.1218 1.31085ZM25.1145 1.29112C25.0868 1.21336 25.045 1.14228 24.9919 1.07988L24.7635 1.27431C24.7939 1.31002 24.8168 1.34958 24.8319 1.39185L25.1145 1.29112ZM24.9926 1.08071C24.9758 1.06067 24.9583 1.04642 24.9485 1.03865C24.946 1.03664 24.9435 1.03467 24.9417 1.03322C24.9396 1.03164 24.9382 1.03049 24.9369 1.02943C24.9342 1.02731 24.9335 1.02659 24.9335 1.02661L24.729 1.24617C24.7366 1.25323 24.7437 1.2591 24.7491 1.2634C24.7518 1.26556 24.7544 1.26758 24.7564 1.26916C24.7586 1.27089 24.7601 1.27208 24.7616 1.27327C24.7679 1.27828 24.766 1.27734 24.7628 1.27348L24.9926 1.08071ZM24.9326 1.02582C24.9247 1.01857 24.8788 0.969711 24.8315 0.941162L24.6765 1.19801C24.6897 1.20599 24.6877 1.20828 24.7299 1.24695L24.9326 1.02582ZM24.8285 0.939353C24.8183 0.933569 24.8092 0.929634 24.8024 0.926998C24.7958 0.924478 24.7901 0.922673 24.7878 0.921954C24.7843 0.920841 24.7855 0.921218 24.7865 0.921552C24.7881 0.922109 24.7925 0.923711 24.7982 0.926553L24.664 1.19488C24.6733 1.19954 24.6815 1.20265 24.6869 1.20456C24.6897 1.20553 24.6921 1.20631 24.6937 1.20684C24.6951 1.20727 24.697 1.20789 24.6973 1.20796C24.6989 1.20848 24.6971 1.20794 24.6944 1.20691C24.6914 1.20576 24.6861 1.20352 24.6796 1.19982L24.8285 0.939353ZM24.8031 0.929153C24.7691 0.9105 24.722 0.895627 24.7157 0.893258L24.6097 1.1739C24.6504 1.18927 24.6492 1.18692 24.659 1.19228L24.8031 0.929153ZM24.7149 0.892965C24.6749 0.87809 24.6268 0.862143 24.5724 0.854696L24.5317 1.15192C24.5536 1.15491 24.5775 1.16193 24.6105 1.17419L24.7149 0.892965ZM24.5715 0.854568C24.5371 0.850083 24.5054 0.849606 24.4764 0.850209L24.4827 1.15014C24.5038 1.1497 24.519 1.15027 24.5327 1.15205L24.5715 0.854568ZM24.4777 0.850188C24.4242 0.850856 24.3721 0.857598 24.3197 0.871056L24.3942 1.16165C24.4231 1.15424 24.4514 1.15054 24.4814 1.15016L24.4777 0.850188ZM24.3193 0.871156C24.3266 0.869257 24.3321 0.868721 24.3339 0.868569C24.3348 0.868497 24.3358 0.868469 24.3302 0.868675C24.3235 0.868926 24.2968 0.869399 24.2672 0.879272L24.3621 1.16387C24.3537 1.16668 24.3469 1.16777 24.3431 1.16821C24.34 1.16859 24.3381 1.16859 24.3413 1.16847C24.3428 1.16842 24.3509 1.16819 24.3588 1.16753C24.3677 1.16679 24.3802 1.16528 24.3946 1.16155L24.3193 0.871156ZM24.2662 0.879598L1.30601 8.7078L1.40282 8.99175L24.3631 1.16355L24.2662 0.879598ZM1.30644 8.70766C1.03764 8.79839 0.855498 9.0478 0.850122 9.33071L1.15007 9.33641C1.15304 9.17991 1.25373 9.04208 1.40238 8.9919L1.30644 8.70766ZM0.850122 9.33071C0.84475 9.61348 1.01673 9.86953 1.28142 9.97098L1.38879 9.69085C1.24228 9.6347 1.14709 9.49307 1.15007 9.33641L0.850122 9.33071ZM17.2397 22.9307L13.2112 13.6037L12.9358 13.7226L16.9643 23.0497L17.2397 22.9307ZM13.1796 13.7692L23.4402 3.50697L23.2281 3.29485L12.9675 13.5571L13.1796 13.7692ZM23.1912 3.35544L16.9591 22.9447L17.245 23.0357L23.4771 3.44639L23.1912 3.35544ZM22.4203 2.62725L12.2192 12.8295L12.4313 13.0416L22.6325 2.83937L22.4203 2.62725ZM12.3791 12.7955L3.1073 9.23265L2.99969 9.51269L12.2714 13.0756L12.3791 12.7955ZM3.1019 9.51465L22.5748 2.87528L22.478 2.59134L3.00508 9.2307L3.1019 9.51465Z" fill="#5C78FF"/>
<path fill-rule="evenodd" clip-rule="evenodd" d="M1.52202 25C1.6556 25 1.78919 24.9489 1.89094 24.8471L9.19647 17.5408C9.40051 17.3367 9.40051 17.0069 9.19647 16.8028C8.99244 16.5988 8.66265 16.5988 8.45862 16.8028L1.15309 24.1091C0.949053 24.3132 0.949053 24.643 1.15309 24.8471C1.25484 24.9489 1.38843 25 1.52202 25Z" fill="#5C78FF" stroke="#5C78FF" stroke-width="0.3"/>
<path fill-rule="evenodd" clip-rule="evenodd" d="M10.5459 20.456L6.89314 24.1092C6.6891 24.3132 6.6891 24.6431 6.89314 24.8471C6.99489 24.9489 7.12848 25 7.26207 25C7.39565 25 7.52924 24.9489 7.631 24.8471L11.2838 21.194C11.4878 20.9899 11.4878 20.6601 11.2838 20.456C11.0797 20.252 10.7499 20.252 10.5459 20.456Z" fill="#5C78FF" stroke="#5C78FF" stroke-width="0.3"/>
<path fill-rule="evenodd" clip-rule="evenodd" d="M1.52202 19.2593C1.6556 19.2593 1.78919 19.2082 1.89094 19.1064L5.54371 15.4532C5.74774 15.2492 5.74774 14.9194 5.54371 14.7153C5.33968 14.5112 5.00988 14.5112 4.80585 14.7153L1.15309 18.3685C0.949053 18.5725 0.949053 18.9023 1.15309 19.1064C1.25484 19.2082 1.38843 19.2593 1.52202 19.2593Z" fill="#5C78FF" stroke="#5C78FF" stroke-width="0.3"/>
</svg>
