<svg width="26" height="26" viewBox="0 0 26 26" fill="none" xmlns="http://www.w3.org/2000/svg">
<path fill-rule="evenodd" clip-rule="evenodd" d="M22.8571 10.8571H15.5714C15.3348 10.8571 15.1429 10.6652 15.1429 10.4286V3.14286C15.1429 1.95947 14.1834 1 13 1C11.8166 1 10.8571 1.95947 10.8571 3.14286V10.4286C10.8571 10.6652 10.6652 10.8571 10.4286 10.8571H3.14286C1.95947 10.8571 1 11.8166 1 13C1 14.1834 1.95947 15.1429 3.14286 15.1429H10.4286C10.6652 15.1429 10.8571 15.3348 10.8571 15.5714V22.8571C10.8571 24.0405 11.8166 25 13 25C14.1834 25 15.1429 24.0405 15.1429 22.8571V15.5714C15.1429 15.3348 15.3348 15.1429 15.5714 15.1429H22.8571C24.0405 15.1429 25 14.1834 25 13C25 11.8166 24.0405 10.8571 22.8571 10.8571Z" fill="#5C78FF" stroke="white"/>
</svg>
