<svg width="24" height="24" viewBox="0 0 24 24" fill="none" xmlns="http://www.w3.org/2000/svg">
<path fill-rule="evenodd" clip-rule="evenodd" d="M2 17L0 23.5L6.5 21.5L2 17Z" fill="#5C78FF"/>
<path fill-rule="evenodd" clip-rule="evenodd" d="M12 24C5.37258 24 0 18.6274 0 12C0 5.37258 5.37258 0 12 0C18.6274 0 24 5.37258 24 12C24 18.6274 18.6274 24 12 24ZM6.31579 7.57895C5.61817 7.57895 5.05263 8.14448 5.05263 8.8421C5.05263 9.53973 5.61817 10.1053 6.31579 10.1053H17.6842C18.3818 10.1053 18.9474 9.53973 18.9474 8.8421C18.9474 8.14448 18.3818 7.57895 17.6842 7.57895H6.31579ZM6.31579 12.6316C5.61817 12.6316 5.05263 13.1971 5.05263 13.8947C5.05263 14.5924 5.61817 15.1579 6.31579 15.1579H12.6316C13.3292 15.1579 13.8947 14.5924 13.8947 13.8947C13.8947 13.1971 13.3292 12.6316 12.6316 12.6316H6.31579Z" fill="#5C78FF"/>
</svg>
