<svg width="24" height="24" viewBox="0 0 24 24" fill="none" xmlns="http://www.w3.org/2000/svg">
<path fill-rule="evenodd" clip-rule="evenodd" d="M21.3333 3H2.66667C1.19333 3 0 4.19387 0 5.66667V17.6667C0 19.14 1.19333 20.3333 2.66667 20.3333H21.3333C22.8067 20.3333 24 19.14 24 17.6667V5.66667C24 4.19387 22.8067 3 21.3333 3ZM12 9.86431L20.192 5.45284C20.6787 5.19111 21.2853 5.37297 21.5467 5.85924C21.8093 6.34551 21.6267 6.95204 21.1413 7.21391L12.4747 11.8806C12.1787 12.0399 11.8213 12.0399 11.5253 11.8806L2.85867 7.21391C2.37333 6.95204 2.19067 6.34551 2.45333 5.85924C2.71467 5.37297 3.32133 5.19111 3.808 5.45284L12 9.86431Z" fill="#5C78FF"/>
</svg>
