<svg width="24" height="24" viewBox="0 0 24 24" fill="none" xmlns="http://www.w3.org/2000/svg">
<path d="M8.85558 7.05884H15.1444C16.3091 7.05884 16.9412 7.69088 16.9412 8.85559V15.1444C16.9412 16.3091 16.3091 16.9412 15.1444 16.9412H8.85558C7.69087 16.9412 7.05882 16.3091 7.05882 15.1444V8.85559C7.05882 7.69088 7.69087 7.05884 8.85558 7.05884Z" fill="#5C78FF"/>
<path fill-rule="evenodd" clip-rule="evenodd" d="M19.7647 8.47059V16.9412H20.9198C22.9158 16.9412 24 15.8576 24 13.861V3.08019C24 1.08353 22.9158 0 20.9198 0H10.139C8.14235 0 7.05882 1.08353 7.05882 3.08019V4.23529H15.5294C17.8686 4.23529 19.7647 6.13144 19.7647 8.47059ZM4.23529 15.5294V7.05882H3.08019C1.08353 7.05882 0 8.14235 0 10.139V20.9198C0 22.9165 1.08353 24 3.08019 24H13.861C15.8576 24 16.9412 22.9165 16.9412 20.9198V19.7647H8.47059C6.13144 19.7647 4.23529 17.8686 4.23529 15.5294Z" fill="#5C78FF"/>
</svg>
