<svg width="24" height="24" viewBox="0 0 24 24" fill="none" xmlns="http://www.w3.org/2000/svg">
<path fill-rule="evenodd" clip-rule="evenodd" d="M0.179993 19L7.09999 4.64001L14.02 19H12.06L10.3 15.28H3.89999L2.13999 19H0.179993ZM7.09999 8.52002L4.69999 13.6H9.49999L7.09999 8.52002Z" fill="#48465B"/>
<path fill-rule="evenodd" clip-rule="evenodd" d="M21.34 19V18C20.5 18.76 19.38 19.16 18.16 19.16C15.22 19.16 13.06 16.9 13.06 14C13.06 11.1 15.22 8.84003 18.16 8.84003C19.38 8.84003 20.5 9.24003 21.34 10V9.00003H23.06V19H21.34ZM18.2 17.54C19.64 17.54 20.76 16.86 21.34 15.92V12.08C20.76 11.14 19.64 10.46 18.2 10.46C16.24 10.46 14.84 12.02 14.84 14C14.84 15.98 16.24 17.54 18.2 17.54Z" fill="#5C78FF"/>
</svg>
