<svg width="24" height="24" viewBox="0 0 24 24" fill="none" xmlns="http://www.w3.org/2000/svg">
<path d="M0.692137 14.5707C-0.230712 13.6424 -0.230712 12.1431 0.692137 11.2147L11.4045 0.682892C11.8497 0.245246 12.4489 0 13.0732 0H21.6198C22.9344 0 24 1.06564 24 2.38017V10.9024C24 11.5411 23.7433 12.153 23.2876 12.6005L12.593 23.1037C12.1466 23.5506 11.5408 23.8017 10.909 23.8017C10.2773 23.8017 9.67151 23.5506 9.22506 23.1037L0.692137 14.5707ZM18.4463 7.93392C19.7608 7.93392 20.8264 6.86828 20.8264 5.55374C20.8264 4.23921 19.7608 3.17357 18.4463 3.17357C17.1317 3.17357 16.0661 4.23921 16.0661 5.55374C16.0661 6.86828 17.1317 7.93392 18.4463 7.93392Z" fill="#5C78FF"/>
</svg>
