<svg width="24" height="24" viewBox="0 0 24 24" fill="none" xmlns="http://www.w3.org/2000/svg">
<path d="M12 10.6667C9.0545 10.6667 6.66663 8.27869 6.66663 5.33335C6.66663 2.38801 9.0545 0 12 0C14.9455 0 17.3333 2.38801 17.3333 5.33335C17.3333 8.27869 14.9455 10.6667 12 10.6667Z" fill="#48465B"/>
<path d="M0.000875899 22.9321C0.517677 16.5694 5.68249 13.3334 11.9777 13.3334C18.3616 13.3334 23.6065 16.3907 23.9972 22.9334C24.0128 23.1934 23.9972 24.0001 22.9956 24.0001C18.0548 24.0001 10.7129 24.0001 0.969945 24.0001C0.635544 24.0001 -0.0273908 23.2787 0.000875899 22.9321Z" fill="#5C78FF"/>
</svg>
