<svg width="24" height="24" viewBox="0 0 24 24" fill="none" xmlns="http://www.w3.org/2000/svg">
<path d="M15.5313 17.9394C14.9793 17.3881 14.9793 16.4942 15.5313 15.9429C16.0819 15.3916 16.977 15.3916 17.5276 15.9429L23.1746 21.59C23.7266 22.1413 23.7266 23.0352 23.1746 23.5865C22.624 24.1378 21.729 24.1378 21.1784 23.5865L15.5313 17.9394Z" fill="#5C78FF"/>
<path fill-rule="evenodd" clip-rule="evenodd" d="M1 9.88237C1 15.3403 5.42448 19.7647 10.8824 19.7647C16.3403 19.7647 20.7647 15.3403 20.7647 9.88237C20.7647 4.42448 16.3403 0 10.8824 0C5.42448 0 1 4.42448 1 9.88237ZM17.9412 9.88237C17.9412 13.7808 14.7803 16.9412 10.8824 16.9412C6.98448 16.9412 3.82353 13.7808 3.82353 9.88237C3.82353 5.98391 6.98448 2.82353 10.8824 2.82353C14.7803 2.82353 17.9412 5.98391 17.9412 9.88237Z" fill="#5C78FF"/>
</svg>
