<svg width="24" height="24" viewBox="0 0 24 24" fill="none" xmlns="http://www.w3.org/2000/svg">
<path d="M6.79273 6.67293C6.79273 6.35281 6.69513 6.09516 6.49994 5.89996C6.30475 5.70477 6.04709 5.60717 5.72697 5.60717C5.39124 5.60717 5.09455 5.70672 4.83689 5.90582C4.57924 6.10492 4.45041 6.36062 4.45041 6.67293C4.45041 6.97743 4.57924 7.22923 4.83689 7.42833C5.09455 7.62742 5.39124 7.72697 5.72697 7.72697C6.04709 7.72697 6.30475 7.63133 6.49994 7.44004C6.69513 7.24875 6.79273 6.99305 6.79273 6.67293ZM15.4944 12.6107C15.4944 12.3921 15.3949 12.1969 15.1958 12.0251C14.9967 11.8534 14.741 11.7675 14.4287 11.7675C14.2179 11.7675 14.0246 11.8553 13.849 12.031C13.6733 12.2067 13.5855 12.3999 13.5855 12.6107C13.5855 12.8293 13.6733 13.0265 13.849 13.2021C14.0246 13.3778 14.2179 13.4657 14.4287 13.4657C14.741 13.4657 14.9967 13.3798 15.1958 13.208C15.3949 13.0362 15.4944 12.8371 15.4944 12.6107ZM12.7305 6.67293C12.7305 6.35281 12.6349 6.09516 12.4436 5.89996C12.2523 5.70477 11.9966 5.60717 11.6765 5.60717C11.3407 5.60717 11.044 5.70672 10.7864 5.90582C10.5287 6.10492 10.3999 6.36062 10.3999 6.67293C10.3999 6.97743 10.5287 7.22923 10.7864 7.42833C11.044 7.62742 11.3407 7.72697 11.6765 7.72697C11.9966 7.72697 12.2523 7.63133 12.4436 7.44004C12.6349 7.24875 12.7305 6.99305 12.7305 6.67293ZM20.1674 12.6107C20.1674 12.3921 20.0659 12.1969 19.8629 12.0251C19.6599 11.8534 19.4061 11.7675 19.1016 11.7675C18.8908 11.7675 18.6976 11.8553 18.5219 12.031C18.3462 12.2067 18.2584 12.3999 18.2584 12.6107C18.2584 12.8293 18.3462 13.0265 18.5219 13.2021C18.6976 13.3778 18.8908 13.4657 19.1016 13.4657C19.4061 13.4657 19.6599 13.3798 19.8629 13.208C20.0659 13.0362 20.1674 12.8371 20.1674 12.6107ZM17.0521 7.96121C16.8101 7.92997 16.5368 7.91436 16.2323 7.91436C14.9128 7.91436 13.6987 8.21496 12.59 8.81615C11.4813 9.41735 10.6088 10.2313 9.97243 11.258C9.3361 12.2847 9.01793 13.4071 9.01793 14.6251C9.01793 15.2341 9.10772 15.8275 9.2873 16.4053C9.01403 16.4287 8.74857 16.4404 8.49091 16.4404C8.28791 16.4404 8.09272 16.4345 7.90533 16.4228C7.71795 16.4111 7.50323 16.3858 7.26119 16.3467C7.01915 16.3077 6.84543 16.2803 6.74003 16.2647C6.63462 16.2491 6.42186 16.2081 6.10174 16.1418C5.78163 16.0754 5.58643 16.0344 5.51616 16.0188L2.55313 17.5062L3.39636 14.953C1.13212 13.3681 0 11.4552 0 9.21435C0 7.89484 0.380627 6.68074 1.14188 5.57204C1.90314 4.46334 2.93376 3.59083 4.23374 2.9545C5.53373 2.31817 6.95279 2 8.49091 2C9.86507 2 11.1631 2.25766 12.385 2.77297C13.6069 3.28828 14.6297 4.00073 15.4535 4.91033C16.2772 5.81993 16.8101 6.83689 17.0521 7.96121ZM23.9854 14.5314C23.9854 15.4449 23.7179 16.3174 23.1831 17.149C22.6483 17.9805 21.9241 18.7359 21.0106 19.4152L21.6548 21.535L19.3241 20.2584C18.153 20.5473 17.3019 20.6917 16.771 20.6917C15.4515 20.6917 14.2374 20.4165 13.1287 19.866C12.02 19.3156 11.1475 18.568 10.5112 17.6233C9.87483 16.6785 9.55667 15.6479 9.55667 14.5314C9.55667 13.4149 9.87483 12.3843 10.5112 11.4396C11.1475 10.4948 12.02 9.74723 13.1287 9.19678C14.2374 8.64633 15.4515 8.37111 16.771 8.37111C18.0281 8.37111 19.2109 8.64633 20.3196 9.19678C21.4283 9.74723 22.3165 10.4968 22.984 11.4454C23.6516 12.394 23.9854 13.4227 23.9854 14.5314Z" fill="#5C78FF"/>
</svg>
