<svg width="24" height="24" viewBox="0 0 24 24" fill="none" xmlns="http://www.w3.org/2000/svg">
<path d="M21.9 14.7C21.6 14.8 21.3 14.8 21 14.8C19.7 14.8 18.5 14 18 12.7C17.5 13.9 16.3 14.8 15 14.8C13.7 14.8 12.5 14 12 12.7C11.5 13.9 10.3 14.8 9 14.8C7.7 14.8 6.5 14 6 12.7C5.5 13.9 4.3 14.8 3 14.8C2.7 14.8 2.4 14.8 2.1 14.7V21.5C2.1 22.1 2.8 22.9 3.4 22.9H20.7C21.3 22.9 22 22.1 22 21.5V14.7H21.9Z" fill="#5C78FF"/>
<path d="M24 9.6L21.9 4.1H2.1L0 9.6C0 11.3 1.3 12.6 3 12.6C4.7 12.6 6 11.3 6 9.6C6 10.7 6.6 11.7 7.5 12.2C8.4 12.7 9.6 12.7 10.5 12.2C11.4 11.7 12 10.7 12 9.6C12 10.7 12.5 11.7 13.5 12.3C14.4 12.9 15.6 12.9 16.5 12.3C17.4 11.8 17.9 10.8 18 9.8V9.6V9.8C18 10.8 18.6 11.8 19.5 12.3C20.4 12.9 21.6 12.9 22.6 12.3C23.5 11.7 24 10.7 24 9.6V9.6ZM20 3H4C3.4 3 3 2.6 3 2C3 1.5 3.4 1 4 1H20C20.5 1 21 1.4 21 2C21 2.6 20.6 3 20 3V3Z" fill="#5C78FF"/>
</svg>
