<svg width="24" height="24" viewBox="0 0 24 24" fill="none" xmlns="http://www.w3.org/2000/svg">
<path d="M8.97952 11.0552L0 19.7687V24H4.23163V21.1789H6.97062V18.3581H9.8738L12.9551 15.0306L8.97952 11.0552Z" fill="#5C78FF"/>
<path fill-rule="evenodd" clip-rule="evenodd" d="M9.51073 2.47878C6.20554 5.78397 6.20554 11.1426 9.51073 14.4477C12.8158 17.7528 18.1744 17.7528 21.4796 14.4477C24.7846 11.1426 24.7846 5.78397 21.4796 2.47878C18.1744 -0.826261 12.8158 -0.826261 9.51073 2.47878ZM18.5936 8.74071C17.7673 9.567 16.4277 9.567 15.6014 8.74071C14.7752 7.91441 14.7752 6.57468 15.6014 5.74852C16.4277 4.92223 17.7673 4.92223 18.5936 5.74852C19.4199 6.57468 19.4199 7.91441 18.5936 8.74071Z" fill="#5C78FF"/>
</svg>
