<svg width="24" height="24" viewBox="0 0 24 24" fill="none" xmlns="http://www.w3.org/2000/svg">
<path d="M2 10.2774C2 4.11097 6.11097 0 12.2774 0C18.4439 0 22.5549 5.13871 22.5549 10.2774C22.5549 13.4738 19.5726 17.8631 13.608 23.4453C12.8467 24.1578 11.6724 24.1874 10.8762 23.5141C4.95874 18.5101 2 14.0979 2 10.2774ZM12.2774 12.3329C14.1694 12.3329 15.7032 10.7991 15.7032 8.9071C15.7032 7.01508 14.1694 5.48129 12.2774 5.48129C10.3854 5.48129 8.85162 7.01508 8.85162 8.9071C8.85162 10.7991 10.3854 12.3329 12.2774 12.3329Z" fill="#5C78FF"/>
</svg>
