<svg width="24" height="22" viewBox="0 0 24 22" fill="none" xmlns="http://www.w3.org/2000/svg">
<g clip-path="url(#clip0_340_2327)">
<path fill-rule="evenodd" clip-rule="evenodd" d="M2.79516 19.5014L2.73526 12.2136C2.73526 12.0272 2.88834 11.8675 3.08135 11.8675L10.3892 11.7743C10.5356 11.7677 10.662 11.8475 10.7153 11.9806C10.7752 12.1137 10.7419 12.2602 10.6421 12.3667L8.59216 14.4499C8.45905 14.5896 8.45905 14.8026 8.59216 14.9357C10.8417 17.2718 14.2427 18.3833 17.6171 17.5514C20.2993 16.8924 22.4291 15.1487 23.6471 12.9058C23.6937 12.8259 23.7802 12.7926 23.8667 12.8259C23.9466 12.8592 23.9932 12.939 23.9732 13.0256C23.1213 16.7726 20.2328 19.9141 16.2394 20.8924C12.3459 21.8442 8.42578 20.4931 5.92328 17.6978C5.85672 17.6246 5.7702 17.5846 5.67037 17.578C5.57053 17.578 5.48401 17.6113 5.41746 17.6845L3.39416 19.741C3.29433 19.8475 3.14791 19.8741 3.01479 19.8209C2.88168 19.7677 2.79516 19.6479 2.79516 19.5014Z" fill="#5B78FC" stroke="#5B78FC" stroke-width="0.00787485"/>
<path fill-rule="evenodd" clip-rule="evenodd" d="M21.2046 1.71754L21.2645 9.00539C21.2645 9.1984 21.1115 9.35148 20.9184 9.35814L13.6106 9.45131C13.4642 9.45131 13.3444 9.37145 13.2845 9.23834C13.2313 9.10523 13.2579 8.9588 13.3577 8.85897L15.4143 6.76912C15.5407 6.63601 15.5474 6.41637 15.4143 6.28326C13.158 3.94716 9.7637 2.84233 6.38267 3.66762C3.70047 4.32652 1.57735 6.07028 0.35272 8.31987C0.312787 8.39308 0.219608 8.42636 0.139742 8.39973C0.0598747 8.36646 0.0132857 8.27993 0.0332524 8.19341C0.885166 4.44632 3.77368 1.31155 7.76037 0.333179C11.6539 -0.625223 15.574 0.732514 18.0765 3.52785C18.1431 3.60107 18.2296 3.641 18.3294 3.641C18.4293 3.641 18.5158 3.60772 18.589 3.54117L20.6123 1.47794C20.7121 1.3781 20.8585 1.34483 20.9917 1.39807C21.1248 1.45132 21.2046 1.57777 21.2046 1.71754Z" fill="#5B78FC" stroke="#5B78FC" stroke-width="0.00787485"/>
</g>
<defs>
<clipPath id="clip0_340_2327">
<rect width="24" height="21.2189" fill="white"/>
</clipPath>
</defs>
</svg>
