<svg width="24" height="24" viewBox="0 0 24 24" fill="none" xmlns="http://www.w3.org/2000/svg">
<g clip-path="url(#clip0_321:2307)">
<path fill-rule="evenodd" clip-rule="evenodd" d="M11.9886 23.9982C9.18269 23.9982 6.45407 22.9977 4.29846 21.1968C2.11557 19.3686 0.651209 16.8128 0.173701 14.0069C-0.362928 10.8508 0.364704 7.66742 2.21562 5.05704C4.07108 2.44211 6.83153 0.709441 9.99218 0.172813C10.6607 0.0591201 11.3383 0 12.0159 0C14.8218 0 17.5505 1.00049 19.7061 2.80138C21.889 4.62956 23.3533 7.18536 23.8308 9.99129C24.3675 13.1474 23.6398 16.3308 21.7889 18.9457C19.9334 21.5606 17.173 23.2933 14.0123 23.8299C13.3438 23.9436 12.6662 24.0028 11.9886 24.0028V23.9982Z" fill="url(#paint0_linear_321:2307)"/>
<path fill-rule="evenodd" clip-rule="evenodd" d="M11.9886 23.9029C9.20999 23.9029 6.50411 22.9161 4.36215 21.1243C2.19744 19.3143 0.742179 16.7812 0.269219 13.9935C-0.262862 10.8601 0.455674 7.704 2.29749 5.11181C4.13931 2.51963 6.87702 0.800596 10.0104 0.263968C10.6744 0.150276 11.3474 0.0957031 12.0159 0.0957031C14.7946 0.0957031 17.5004 1.08255 19.6424 2.87435C21.8071 4.68433 23.2624 7.2174 23.7353 10.0051C24.2674 13.1385 23.5489 16.2946 21.7071 18.8868C19.8698 21.479 17.1275 23.2026 13.9942 23.7346C13.3302 23.8483 12.6571 23.9029 11.9886 23.9029V23.9029Z" fill="#F5E894"/>
<path fill-rule="evenodd" clip-rule="evenodd" d="M11.9886 23.2574C9.36457 23.2574 6.79967 22.3251 4.77594 20.6288C2.72948 18.9143 1.35152 16.5177 0.905849 13.8845C0.401055 10.9194 1.08321 7.93616 2.82498 5.48495C4.56675 3.03374 7.15439 1.40566 10.1195 0.900869C10.7471 0.796272 11.3883 0.741699 12.0204 0.741699C14.6444 0.741699 17.2093 1.67398 19.2331 3.37027C21.2795 5.08475 22.6575 7.48139 23.1032 10.1145C23.608 13.0796 22.9258 16.0629 21.184 18.5141C19.4423 20.9653 16.8546 22.5934 13.8895 23.0982C13.2619 23.2028 12.6207 23.2574 11.9886 23.2574Z" fill="url(#paint1_radial_321:2307)"/>
<path fill-rule="evenodd" clip-rule="evenodd" d="M21.2796 18.6363C19.5333 21.0966 16.932 22.7338 13.9578 23.2385C13.3256 23.3477 12.6844 23.4023 12.0523 23.4023C9.41462 23.4023 6.84517 22.4654 4.81235 20.7646C2.75679 19.0456 1.37429 16.6398 0.928616 13.9931C0.423821 11.0189 1.10598 8.02195 2.85229 5.56164C4.59861 3.10134 7.19989 1.46417 10.1741 0.959371C10.8062 0.850227 11.4474 0.795654 12.0796 0.795654C14.7172 0.795654 17.2867 1.73248 19.3195 3.43332C21.3751 5.15235 22.7576 7.55808 23.2032 10.2048C23.708 13.179 23.0259 16.176 21.2796 18.6363V18.6363Z" stroke="#99603F" stroke-width="0.0194894" stroke-miterlimit="22.9256"/>
<path fill-rule="evenodd" clip-rule="evenodd" d="M15.5131 22.7842C15.0038 22.9479 14.4762 23.0752 13.9396 23.1662C13.9305 23.1707 13.9169 23.1707 13.9032 23.1707C14.9674 21.8428 15.7587 20.5012 16.5818 19.2415C16.7228 19.0232 17.0139 18.955 17.2367 19.0869L17.2958 19.1233C17.4141 19.1915 17.4914 19.2961 17.5232 19.4325C17.555 19.569 17.5323 19.6963 17.455 19.8145C16.8319 20.7696 16.2226 21.7746 15.5086 22.7796L15.5131 22.7842ZM14.2398 17.0723C14.2079 16.9358 14.1306 16.8312 14.0124 16.763L13.9533 16.7266C13.7304 16.5948 13.4394 16.663 13.2984 16.8813C12.0569 18.7868 10.8836 20.8832 8.71885 22.8206C9.1145 22.9434 9.5147 23.0434 9.91944 23.1207C11.8795 21.2562 12.9846 19.2597 14.1761 17.4497C14.2534 17.3315 14.2761 17.2042 14.2443 17.0677L14.2398 17.0723ZM10.7335 14.4301C10.7653 14.5665 10.7426 14.6938 10.6653 14.8121C9.31005 16.8722 8.05944 19.1779 5.54001 21.2516C5.29444 21.0788 5.05341 20.8923 4.82148 20.7013C4.78509 20.6695 4.74871 20.6377 4.71233 20.6058C7.19992 18.5548 8.45054 16.281 9.78756 14.2391C9.92854 14.0208 10.2196 13.9526 10.4424 14.0844L10.5016 14.1208C10.6198 14.189 10.6971 14.2982 10.7289 14.4301H10.7335ZM17.3095 4.87989C17.3777 5.08454 17.3458 5.29373 17.223 5.46655L13.8578 10.1507C13.6122 10.4918 13.1983 10.6373 12.7936 10.519L9.63749 9.60495C9.26458 9.49581 8.89167 9.60495 8.63699 9.896C6.29493 12.5291 5.22622 15.4306 2.42484 17.9045C2.08376 17.3406 1.79271 16.7494 1.55623 16.1354C4.47585 13.5478 5.00338 10.9602 8.15039 7.82225C8.40506 7.56758 8.75069 7.47663 9.10086 7.57213L12.1205 8.40436C12.5162 8.5135 12.9209 8.37707 13.1665 8.04509L14.3125 6.49433C14.4444 6.31697 14.4762 6.10777 14.408 5.90313C14.3398 5.69393 14.1897 5.54841 13.9805 5.48474L5.51273 2.91074H5.50363C5.8538 2.66971 6.7406 2.10125 7.72291 1.68286L16.882 4.4706C17.0912 4.53427 17.2412 4.67979 17.3095 4.88444V4.87989ZM21.7344 12.3518H19.7197V13.8616H21.7344V14.3664H19.2195V11.8515H21.7344V12.3563V12.3518ZM17.2867 12.3518H15.7951V12.8566H17.2867V12.3518ZM17.2867 13.3568H15.7951V13.8616H17.2867V13.3568ZM15.2948 11.847V14.3618H17.8097V13.3568H17.3049V12.852H17.8097V11.847H15.2948ZM13.3802 11.847V12.852H11.8704V11.847H11.3656V14.3618H11.8704V13.3568H13.3802V14.3618H13.885V11.847H13.3802Z" fill="#99603F"/>
<path fill-rule="evenodd" clip-rule="evenodd" d="M15.4585 22.7155C14.9492 22.8792 14.4217 23.0065 13.885 23.0975C13.8759 23.102 13.8623 23.102 13.8486 23.102C14.9128 21.7741 15.7041 20.4325 16.5272 19.1728C16.6682 18.9545 16.9593 18.8863 17.1821 19.0182L17.2412 19.0546C17.3595 19.1228 17.4368 19.2274 17.4686 19.3638C17.5005 19.5002 17.4777 19.6276 17.4004 19.7458C16.7774 20.7008 16.168 21.7059 15.454 22.7109L15.4585 22.7155ZM14.1852 17.0035C14.1533 16.8671 14.076 16.7625 13.9578 16.6943L13.8987 16.6579C13.6758 16.526 13.3848 16.5943 13.2438 16.8125C12.0023 18.718 10.829 20.8145 8.66427 22.7518C9.05992 22.8746 9.46012 22.9747 9.86487 23.052C11.8249 21.1874 12.93 19.191 14.1215 17.381C14.1988 17.2628 14.2216 17.1354 14.1897 16.999L14.1852 17.0035ZM10.6789 14.3613C10.7107 14.4978 10.688 14.6251 10.6107 14.7433C9.25547 16.8034 8.00486 19.1091 5.48543 21.1829C5.23986 21.0101 4.99883 20.8236 4.76689 20.6326C4.73051 20.6008 4.69413 20.5689 4.65775 20.5371C7.14534 18.4861 8.39596 16.2122 9.73298 14.1703C9.87396 13.952 10.165 13.8838 10.3879 14.0157L10.447 14.0521C10.5652 14.1203 10.6425 14.2295 10.6744 14.3613H10.6789ZM17.2549 4.81117C17.3231 5.01581 17.2913 5.22501 17.1685 5.39782L13.8032 10.0819C13.5576 10.423 13.1438 10.5686 12.739 10.4503L9.58291 9.53623C9.21 9.42708 8.83709 9.53623 8.58241 9.82728C6.24035 12.4604 5.17164 15.3618 2.37026 17.8358C2.02918 17.2719 1.73813 16.6807 1.50165 16.0667C4.42127 13.4791 4.9488 10.8914 8.09581 7.75353C8.35048 7.49886 8.69611 7.4079 9.04628 7.5034L12.066 8.33563C12.4616 8.44478 12.8663 8.30835 13.1119 7.97637L14.2579 6.4256C14.3898 6.24824 14.4217 6.03905 14.3534 5.8344C14.2852 5.62521 14.1352 5.47968 13.926 5.41601L5.45815 2.84201H5.44905C5.79922 2.60099 6.68602 2.03252 7.66833 1.61414L16.8274 4.40187C17.0366 4.46554 17.1867 4.61107 17.2549 4.81572V4.81117ZM21.6798 12.283H19.6652V13.7929H21.6798V14.2977H19.1649V11.7828H21.6798V12.2876V12.283ZM17.2321 12.283H15.7405V12.7878H17.2321V12.283ZM17.2321 13.2881H15.7405V13.7929H17.2321V13.2881ZM15.2402 11.7782V14.2931H17.7551V13.2881H17.2503V12.7833H17.7551V11.7782H15.2402ZM13.3257 11.7782V12.7833H11.8158V11.7782H11.311V14.2931H11.8158V13.2881H13.3257V14.2931H13.8305V11.7782H13.3257Z" fill="url(#paint2_linear_321:2307)"/>
<path fill-rule="evenodd" clip-rule="evenodd" d="M23.7353 10.0051C23.2624 7.2174 21.8071 4.68433 19.6424 2.87435C17.5004 1.08255 14.7946 0.0957031 12.0159 0.0957031C11.3474 0.0957031 10.6744 0.154823 10.0104 0.263968C6.87702 0.796049 4.13931 2.51508 2.29749 5.11181C0.455674 7.704 -0.262862 10.8601 0.269219 13.9935C0.742179 16.7812 2.19744 19.3143 4.36215 21.1243C6.50411 22.9161 9.20999 23.9029 11.9886 23.9029C12.6571 23.9029 13.3302 23.8438 13.9942 23.7346C17.1275 23.2026 19.8652 21.4835 21.7071 18.8868C23.5489 16.2946 24.2674 13.1385 23.7353 10.0051ZM21.1841 18.5139C19.4423 20.9651 16.8547 22.5932 13.8896 23.098C13.262 23.2026 12.6208 23.2571 11.9886 23.2571C9.36462 23.2571 6.79971 22.3249 4.77599 20.6286C2.72952 18.9141 1.35157 16.5174 0.905896 13.8843C0.401102 10.9192 1.08326 7.93593 2.82502 5.48473C4.56679 3.03352 7.15443 1.40544 10.1195 0.900646C10.7471 0.796049 11.3883 0.741476 12.0205 0.741476C14.6445 0.741476 17.2094 1.67375 19.2331 3.37005C21.2796 5.08453 22.6575 7.48117 23.1032 10.1143C23.608 13.0794 22.9259 16.0627 21.1841 18.5139Z" fill="url(#paint3_linear_321:2307)"/>
</g>
<defs>
<linearGradient id="paint0_linear_321:2307" x1="20.3382" y1="23.6389" x2="3.52536" y2="0.159167" gradientUnits="userSpaceOnUse">
<stop stop-color="#DEA34F"/>
<stop offset="0.501961" stop-color="#F1DE75"/>
<stop offset="1" stop-color="#F5F5C1"/>
</linearGradient>
<radialGradient id="paint1_radial_321:2307" cx="0" cy="0" r="1" gradientUnits="userSpaceOnUse" gradientTransform="translate(4.16199 -0.522963) rotate(37.8897) scale(26.053 26.0503)">
<stop stop-color="#F2DB6F"/>
<stop offset="0.360784" stop-color="#F4E99F"/>
<stop offset="0.858824" stop-color="#EFD578"/>
<stop offset="1" stop-color="#E1A64F"/>
</radialGradient>
<linearGradient id="paint2_linear_321:2307" x1="2.40664" y1="4.26544" x2="20.7157" y2="20.3961" gradientUnits="userSpaceOnUse">
<stop stop-color="#F2DD74"/>
<stop offset="0.121569" stop-color="#FFF7ED"/>
<stop offset="0.329412" stop-color="#F1DE75"/>
<stop offset="0.439216" stop-color="#FFF5AE"/>
<stop offset="0.658824" stop-color="#FFF7E9"/>
<stop offset="0.678431" stop-color="#F7F7CD"/>
<stop offset="1" stop-color="#F3DD6F"/>
</linearGradient>
<linearGradient id="paint3_linear_321:2307" x1="0.096406" y1="12.0016" x2="23.9036" y2="12.0016" gradientUnits="userSpaceOnUse">
<stop stop-color="#F2DD74"/>
<stop offset="0.188235" stop-color="#FFF7ED"/>
<stop offset="0.501961" stop-color="#F1DE75"/>
<stop offset="0.741176" stop-color="#F7F7CD"/>
<stop offset="1" stop-color="#F3DD6F"/>
</linearGradient>
<clipPath id="clip0_321:2307">
<rect width="24" height="23.9982" fill="white"/>
</clipPath>
</defs>
</svg>
