<svg width="24" height="24" viewBox="0 0 24 24" fill="none" xmlns="http://www.w3.org/2000/svg">
<path fill-rule="evenodd" clip-rule="evenodd" d="M7.5 2V2.55C7.5 3.46127 8.25552 4.2 9.1875 4.2H14.8125C15.7445 4.2 16.5 3.46127 16.5 2.55V2H18.75C19.9926 2 21 2.98497 21 4.2V21.8C21 23.015 19.9926 24 18.75 24H5.25C4.00736 24 3 23.015 3 21.8V4.2C3 2.98497 4.00736 2 5.25 2H7.5Z" fill="#5C78FF"/>
<path fill-rule="evenodd" clip-rule="evenodd" d="M10.6667 1C10.6667 0.447715 11.2636 0 12 0C12.7364 0 13.3333 0.447715 13.3333 1H15.3333C15.7015 1 16 1.22386 16 1.5V2.5C16 2.77614 15.7015 3 15.3333 3H8.66667C8.29848 3 8 2.77614 8 2.5V1.5C8 1.22386 8.29848 1 8.66667 1H10.6667Z" fill="#48465B"/>
<path d="M11 10H8C7.44772 10 7 10.4477 7 11C7 11.5523 7.44772 12 8 12H11C11.5523 12 12 11.5523 12 11C12 10.4477 11.5523 10 11 10Z" fill="#5C78FF"/>
<path d="M15 14H8C7.44772 14 7 14.4477 7 15C7 15.5523 7.44772 16 8 16H15C15.5523 16 16 15.5523 16 15C16 14.4477 15.5523 14 15 14Z" fill="#5C78FF"/>
</svg>
