<svg width="26" height="25" viewBox="0 0 26 25" fill="none" xmlns="http://www.w3.org/2000/svg">
<mask id="path-1-outside-1" maskUnits="userSpaceOnUse" x="0" y="-0.039978" width="26" height="25" fill="black">
<rect fill="white" y="-0.039978" width="26" height="25"/>
<path fill-rule="evenodd" clip-rule="evenodd" d="M18.7949 15.4288C20.1621 15.8625 21.6048 16.0831 23.0742 16.0831C24.136 16.0831 24.9999 16.9125 25 17.9319V22.1512C25 23.1706 24.1361 24 23.0742 24C10.9024 24 1 14.4938 1 2.80874C1 1.7894 1.86394 0.960022 2.92575 0.960022H7.3333C8.39517 0.960022 9.2591 1.7894 9.25904 2.80886C9.25904 4.22006 9.48954 5.60444 9.94329 6.92384C10.164 7.59884 9.97979 8.31824 9.4661 8.81072L7.48892 11.3338C9.13667 14.3157 11.0644 16.1657 14.194 17.7694L16.8925 15.8138C17.3372 15.3788 18.1133 15.2056 18.7949 15.4288ZM23.0742 22.7199C23.401 22.7199 23.6666 22.4649 23.6666 22.1511V17.9318C23.6666 17.618 23.401 17.363 23.0742 17.363C21.4622 17.363 19.8795 17.1205 18.3698 16.6418C18.1575 16.5724 17.9225 16.6262 17.7656 16.7768L14.6608 19.0349C14.4563 19.183 14.1803 19.2067 13.955 19.0936C10.2526 17.2724 7.9798 15.0905 6.10937 11.5611C5.99412 11.343 6.01824 11.0811 6.17187 10.8855L8.46355 7.97181C8.68748 7.74801 8.74348 7.52805 8.67448 7.31553C8.17905 5.87613 7.9258 4.35675 7.9258 2.80863C7.9258 2.49489 7.66017 2.23989 7.33336 2.23989H2.92581C2.599 2.23989 2.33338 2.49489 2.33338 2.80863C2.33338 13.788 11.6374 22.7199 23.0742 22.7199Z"/>
</mask>
<path fill-rule="evenodd" clip-rule="evenodd" d="M18.7949 15.4288C20.1621 15.8625 21.6048 16.0831 23.0742 16.0831C24.136 16.0831 24.9999 16.9125 25 17.9319V22.1512C25 23.1706 24.1361 24 23.0742 24C10.9024 24 1 14.4938 1 2.80874C1 1.7894 1.86394 0.960022 2.92575 0.960022H7.3333C8.39517 0.960022 9.2591 1.7894 9.25904 2.80886C9.25904 4.22006 9.48954 5.60444 9.94329 6.92384C10.164 7.59884 9.97979 8.31824 9.4661 8.81072L7.48892 11.3338C9.13667 14.3157 11.0644 16.1657 14.194 17.7694L16.8925 15.8138C17.3372 15.3788 18.1133 15.2056 18.7949 15.4288ZM23.0742 22.7199C23.401 22.7199 23.6666 22.4649 23.6666 22.1511V17.9318C23.6666 17.618 23.401 17.363 23.0742 17.363C21.4622 17.363 19.8795 17.1205 18.3698 16.6418C18.1575 16.5724 17.9225 16.6262 17.7656 16.7768L14.6608 19.0349C14.4563 19.183 14.1803 19.2067 13.955 19.0936C10.2526 17.2724 7.9798 15.0905 6.10937 11.5611C5.99412 11.343 6.01824 11.0811 6.17187 10.8855L8.46355 7.97181C8.68748 7.74801 8.74348 7.52805 8.67448 7.31553C8.17905 5.87613 7.9258 4.35675 7.9258 2.80863C7.9258 2.49489 7.66017 2.23989 7.33336 2.23989H2.92581C2.599 2.23989 2.33338 2.49489 2.33338 2.80863C2.33338 13.788 11.6374 22.7199 23.0742 22.7199Z" fill="#5C78FF"/>
<path d="M18.7949 15.4288L18.7327 15.6189L18.7344 15.6194L18.7949 15.4288ZM25 17.9319L25.2 17.9319L25.2 17.9318L25 17.9319ZM9.25904 2.80886L9.05904 2.80885V2.80886H9.25904ZM9.94329 6.92384L10.1334 6.86167L10.1324 6.8588L9.94329 6.92384ZM9.4661 8.81072L9.32769 8.66635L9.31744 8.67618L9.30868 8.68736L9.4661 8.81072ZM7.48892 11.3338L7.3315 11.2105L7.24983 11.3147L7.31387 11.4306L7.48892 11.3338ZM14.194 17.7694L14.1028 17.9474L14.212 18.0034L14.3113 17.9314L14.194 17.7694ZM16.8925 15.8138L17.0099 15.9757L17.0218 15.9671L17.0324 15.9568L16.8925 15.8138ZM18.3698 16.6418L18.3076 16.8319L18.3093 16.8324L18.3698 16.6418ZM17.7656 16.7768L17.8832 16.9385L17.8943 16.9305L17.9041 16.921L17.7656 16.7768ZM14.6608 19.0349L14.7781 19.1968L14.7784 19.1966L14.6608 19.0349ZM13.955 19.0936L14.0448 18.9149L14.0433 18.9141L13.955 19.0936ZM6.10937 11.5611L5.93254 11.6545L5.93265 11.6547L6.10937 11.5611ZM6.17187 10.8855L6.01466 10.7618L6.01458 10.7619L6.17187 10.8855ZM8.46355 7.97181L8.32217 7.83035L8.31373 7.83879L8.30635 7.84817L8.46355 7.97181ZM8.67448 7.31553L8.86474 7.25376L8.8636 7.25044L8.67448 7.31553ZM23.0742 15.8831C21.6248 15.8831 20.2025 15.6655 18.8554 15.2381L18.7344 15.6194C20.1216 16.0595 21.5848 16.2831 23.0742 16.2831V15.8831ZM25.2 17.9318C25.1999 16.7944 24.2387 15.8831 23.0742 15.8831V16.2831C24.0333 16.2831 24.7999 17.0306 24.8 17.9319L25.2 17.9318ZM25.2 22.1512V17.9319H24.8V22.1512H25.2ZM23.0742 24.2C24.2388 24.2 25.2 23.2887 25.2 22.1512H24.8C24.8 23.0526 24.0334 23.8 23.0742 23.8V24.2ZM0.8 2.80874C0.8 14.6119 10.7997 24.2 23.0742 24.2V23.8C11.005 23.8 1.2 14.3757 1.2 2.80874H0.8ZM2.92575 0.760022C1.76125 0.760022 0.8 1.67133 0.8 2.80874H1.2C1.2 1.90747 1.96662 1.16002 2.92575 1.16002V0.760022ZM7.3333 0.760022H2.92575V1.16002H7.3333V0.760022ZM9.45904 2.80887C9.45911 1.67133 8.49785 0.760022 7.3333 0.760022V1.16002C8.29248 1.16002 9.0591 1.90747 9.05904 2.80885L9.45904 2.80887ZM10.1324 6.8588C9.68594 5.56053 9.45904 4.19814 9.45904 2.80886H9.05904C9.05904 4.24198 9.29315 5.64835 9.75416 6.98888L10.1324 6.8588ZM9.60451 8.95509C10.1729 8.41015 10.3783 7.61073 10.1334 6.86168L9.7532 6.98601C9.94973 7.58696 9.78666 8.22634 9.32769 8.66635L9.60451 8.95509ZM7.64634 11.4572L9.62353 8.93408L9.30868 8.68736L7.3315 11.2105L7.64634 11.4572ZM14.2852 17.5915C11.1898 16.0052 9.29182 14.1829 7.66397 11.2371L7.31387 11.4306C8.98151 14.4484 10.939 16.3262 14.1028 17.9474L14.2852 17.5915ZM16.7752 15.6519L14.0766 17.6075L14.3113 17.9314L17.0099 15.9757L16.7752 15.6519ZM18.8571 15.2387C18.1117 14.9947 17.2558 15.1786 16.7527 15.6708L17.0324 15.9568C17.4186 15.579 18.1148 15.4166 18.7327 15.6189L18.8571 15.2387ZM23.4666 22.1511C23.4666 22.3468 23.2983 22.5199 23.0742 22.5199V22.9199C23.5037 22.9199 23.8666 22.5829 23.8666 22.1511H23.4666ZM23.4666 17.9318V22.1511H23.8666V17.9318H23.4666ZM23.0742 17.563C23.2983 17.563 23.4666 17.7361 23.4666 17.9318H23.8666C23.8666 17.4999 23.5037 17.163 23.0742 17.163V17.563ZM18.3093 16.8324C19.839 17.3175 21.4421 17.563 23.0742 17.563V17.163C21.4823 17.163 19.9201 16.9235 18.4302 16.4511L18.3093 16.8324ZM17.9041 16.921C18.0069 16.8223 18.1646 16.7851 18.3076 16.8319L18.4319 16.4516C18.1504 16.3597 17.838 16.43 17.6271 16.6325L17.9041 16.921ZM14.7784 19.1966L17.8832 16.9385L17.6479 16.615L14.5431 18.8731L14.7784 19.1966ZM13.8653 19.2723C14.1581 19.4194 14.514 19.3882 14.7781 19.1968L14.5434 18.8729C14.3987 18.9777 14.2025 18.994 14.0448 18.9149L13.8653 19.2723ZM5.93265 11.6547C7.82348 15.2226 10.1279 17.4339 13.8668 19.2731L14.0433 18.9141C10.3773 17.1108 8.13611 14.9583 6.28608 11.4674L5.93265 11.6547ZM6.01458 10.7619C5.81262 11.0191 5.78004 11.3659 5.93254 11.6545L6.2862 11.4676C6.20819 11.32 6.22386 11.1431 6.32915 11.009L6.01458 10.7619ZM8.30635 7.84817L6.01466 10.7618L6.32907 11.0091L8.62075 8.09546L8.30635 7.84817ZM8.48426 7.37729C8.52454 7.50136 8.50678 7.64585 8.32217 7.83035L8.60492 8.11328C8.86819 7.85017 8.96243 7.55475 8.86471 7.25377L8.48426 7.37729ZM7.7258 2.80863C7.7258 4.37863 7.98264 5.92003 8.48537 7.38062L8.8636 7.25044C8.37546 5.83224 8.1258 4.33487 8.1258 2.80863H7.7258ZM7.33336 2.43989C7.55749 2.43989 7.7258 2.61296 7.7258 2.80863H8.1258C8.1258 2.37682 7.76286 2.03989 7.33336 2.03989V2.43989ZM2.92581 2.43989H7.33336V2.03989H2.92581V2.43989ZM2.53338 2.80863C2.53338 2.61296 2.70168 2.43989 2.92581 2.43989V2.03989C2.49632 2.03989 2.13338 2.37682 2.13338 2.80863H2.53338ZM23.0742 22.5199C11.74 22.5199 2.53338 13.6699 2.53338 2.80863H2.13338C2.13338 13.906 11.5347 22.9199 23.0742 22.9199V22.5199Z" fill="#5C78FF" mask="url(#path-1-outside-1)"/>
</svg>
