<svg width="24" height="24" viewBox="0 0 24 24" fill="none" xmlns="http://www.w3.org/2000/svg">
<path d="M2.4 2H21.6C22.9255 2 24 3.074 24 4.4V18.8C24 20.126 22.9255 21.2 21.6 21.2H2.4C1.07448 21.2 0 20.126 0 18.8V4.4C0 3.074 1.07448 2 2.4 2Z" fill="#5C78FF"/>
<path d="M19.8 10.4H4.19999C3.20591 10.4 2.39999 11.2064 2.39999 12.2V12.8H7.90295C8.22119 12.8 8.52647 12.926 8.75147 13.1516L9.95147 14.3516C10.4947 14.8952 11.2316 15.2 12 15.2C12.7684 15.2 13.5053 14.8952 14.0485 14.3516L15.2485 13.1516C15.4735 12.926 15.7788 12.8 16.097 12.8H21.6V12.2C21.6 11.2064 20.7941 10.4 19.8 10.4Z" fill="#48465B"/>
<path d="M4.19999 4.40002C3.20591 4.40002 2.39999 5.20642 2.39999 6.20002V6.80002H21.6V6.20002C21.6 5.20642 20.7941 4.40002 19.8 4.40002H4.19999Z" fill="#48465B"/>
</svg>
