<svg width="24" height="24" viewBox="0 0 24 24" fill="none" xmlns="http://www.w3.org/2000/svg">
<path fill-rule="evenodd" clip-rule="evenodd" d="M23.0883 5.55923C22.5589 5.26491 21.8824 5.29432 21.4118 5.61811L17.6471 8.06118V6.47172C17.6471 5.64752 17 5 16.1765 5H1.47057C0.647068 5 0 5.64757 0 6.47172V17.863C0 18.6872 0.647068 19.3347 1.47057 19.3347H16.1765C17 19.3347 17.647 18.6872 17.647 17.863V16.303L21.3823 18.6872C21.647 18.8638 21.9706 18.9521 22.2941 18.9521C22.5588 18.9521 22.8235 18.8932 23.0882 18.746C23.6471 18.4517 24 17.863 24 17.2154V7.08988C24.0001 6.44231 23.6471 5.88302 23.0883 5.55923ZM15.8824 17.5687H1.76471V6.76606H15.8824V17.5687H15.8824ZM22.2353 17.1272L17.6471 14.2132V10.1806L22.2353 7.20768V17.1272Z" fill="#5C78FF"/>
</svg>
